<?xml version="1.0" standalone="no"?>
<!DOCTYPE svg PUBLIC "-//W3C//DTD SVG 20010904//EN"
 "http://www.w3.org/TR/2001/REC-SVG-20010904/DTD/svg10.dtd">
<svg version="1.0" xmlns="http://www.w3.org/2000/svg"
 width="500.000000pt" height="500.000000pt" viewBox="0 0 500.000000 500.000000"
 preserveAspectRatio="xMidYMid meet">
<metadata>
Created by potrace 1.14, written by Peter Selinger 2001-2017
</metadata>
<g transform="translate(0.000000,500.000000) scale(0.100000,-0.100000)"
fill="#000000" stroke="none">
<path d="M2308 4995 c-2 -2 -37 -6 -78 -10 -101 -9 -345 -58 -450 -91 -556
-170 -1037 -526 -1357 -1004 -48 -71 -122 -196 -148 -250 -99 -200 -180 -423
-209 -572 -2 -12 -7 -30 -10 -38 -3 -8 -7 -31 -10 -50 -3 -19 -7 -44 -10 -55
-2 -11 -7 -45 -11 -75 -4 -30 -9 -64 -12 -75 -3 -11 -6 -114 -8 -230 -4 -332
28 -546 132 -855 81 -245 244 -543 413 -755 85 -107 295 -315 400 -396 386
-300 828 -478 1310 -528 92 -9 447 -7 520 4 284 42 396 71 685 178 115 42 373
188 505 285 236 174 450 397 607 632 47 71 147 239 148 250 1 3 13 28 27 55
54 105 151 371 173 476 2 9 12 59 23 110 20 95 26 132 40 249 12 105 7 446 -7
560 -17 131 -79 412 -100 450 -5 9 -12 31 -16 50 -4 19 -13 45 -21 58 -8 12
-12 22 -10 22 8 0 -81 196 -130 288 -56 105 -159 264 -226 351 -28 34 -57 73
-66 84 -29 37 -276 281 -310 307 -18 14 -45 35 -60 48 -72 62 -312 211 -447
277 -126 62 -333 142 -410 160 -11 2 -45 11 -75 19 -62 18 -176 39 -295 57
-71 10 -498 22 -507 14z"/>
</g>
</svg>
